<!DOCTYPE svg PUBLIC "-//W3C//DTD SVG 20010904//EN" "http://www.w3.org/TR/2001/REC-SVG-20010904/DTD/svg10.dtd">
<svg version="1.0" xmlns="http://www.w3.org/2000/svg" width="105px" height="95px" viewBox="0 0 1050 950" preserveAspectRatio="xMidYMid meet">
<g id="layer101" fill="#111111" stroke="none">
 <path d="M280 934 c-98 -12 -230 -35 -254 -44 -23 -8 -27 -15 -24 -42 2 -26 9 -35 33 -43 29 -10 30 -12 27 -64 -6 -97 49 -216 114 -251 l32 -16 -18 -35 c-10 -19 -21 -55 -25 -81 -6 -38 -11 -47 -31 -52 -28 -7 -89 1 -118 16 -18 10 -18 7 -12 -43 4 -30 13 -57 19 -61 19 -12 55 -9 94 7 l37 16 -24 -26 c-13 -14 -38 -30 -57 -37 -18 -7 -33 -15 -33 -19 0 -4 17 -21 38 -38 l39 -30 30 19 c17 10 34 28 38 39 6 20 10 17 50 -26 l43 -48 -25 -27 -25 -26 89 -7 c218 -19 374 54 414 193 15 51 19 155 6 188 -7 20 -4 21 119 28 137 7 161 14 170 51 5 22 -18 246 -32 306 -4 20 -1 27 20 37 16 7 26 20 26 32 0 51 -170 81 -490 85 -129 2 -251 1 -270 -1z"/>
 </g>
<g id="layer102" fill="#59320d" stroke="none">
 <path d="M280 934 c-98 -12 -230 -35 -254 -44 -23 -8 -27 -15 -24 -42 2 -25 9 -35 29 -42 23 -8 31 -3 75 42 59 61 109 78 199 67 33 -4 97 -9 143 -10 46 -2 89 -8 97 -15 9 -7 59 -10 152 -8 l138 3 72 -37 c39 -21 74 -45 76 -55 4 -14 5 -15 6 -2 0 9 12 21 26 27 15 7 25 20 25 32 0 51 -170 81 -490 85 -129 2 -251 1 -270 -1z"/>
 <path d="M230 890 c11 -7 9 -11 -13 -19 -25 -10 -81 -60 -74 -67 1 -2 32 -4 67 -5 109 -3 101 -14 -15 -19 -107 -5 -110 -6 -113 -29 l-4 -24 84 6 c93 7 161 23 153 38 -8 12 -4 12 38 -6 47 -19 101 -19 121 1 31 30 14 84 -26 84 -10 0 -18 5 -18 11 0 5 -4 7 -10 4 -5 -3 -10 -1 -10 5 0 6 -5 8 -10 5 -6 -4 -17 -1 -25 5 -8 7 -15 9 -15 6 0 -4 -8 -2 -18 3 -11 6 -33 6 -55 1 -21 -4 -39 -4 -43 1 -3 5 -11 9 -17 9 -7 0 -6 -4 3 -10z"/>
 <path d="M578 863 c-9 -2 -18 -16 -20 -31 -2 -18 -10 -28 -28 -32 -14 -3 -25 -12 -25 -20 0 -20 -37 -38 -88 -43 -42 -4 -42 -4 8 -5 32 -1 59 4 73 14 26 18 57 11 48 -11 -3 -10 3 -17 19 -21 32 -8 32 -27 -1 -53 -34 -27 -28 -40 32 -71 40 -20 51 -32 62 -65 7 -22 23 -50 35 -63 21 -22 27 -23 152 -20 71 2 139 7 149 12 15 7 17 6 11 -4 -5 -8 -4 -11 3 -6 6 4 10 12 8 19 -2 7 -10 71 -17 143 -15 165 -26 189 -104 231 -58 32 -63 32 -180 32 -66 -1 -128 -3 -137 -6z"/>
 <path d="M319 745 c-3 -2 -45 -11 -94 -20 -49 -8 -90 -17 -93 -19 -3 -4 10 -73 24 -128 1 -5 2 -12 3 -17 0 -5 14 -23 30 -40 33 -35 81 -42 119 -15 29 20 28 30 -5 37 -29 6 -64 52 -56 75 3 7 1 12 -4 11 -4 -1 -17 -1 -28 0 -37 2 29 46 90 60 48 11 55 15 55 37 0 17 -6 24 -18 24 -10 0 -21 -2 -23 -5z"/>
 <path d="M492 728 c-34 -17 -27 -62 10 -66 15 -2 35 1 45 7 16 9 16 10 -5 11 -27 0 -39 24 -22 45 14 17 5 18 -28 3z"/>
 <path d="M380 702 c0 -29 37 -58 58 -46 27 17 27 50 0 58 -41 10 -58 7 -58 -12z"/>
 <path d="M299 664 c-9 -11 -8 -23 6 -54 15 -32 23 -40 45 -40 15 0 35 9 45 20 17 19 17 20 0 20 -15 0 -16 3 -7 12 19 19 14 30 -10 23 -16 -4 -19 -4 -9 3 7 5 11 14 8 19 -10 15 -64 13 -78 -3z"/>
 <path d="M267 644 c-11 -11 -8 -47 6 -65 7 -9 23 -20 37 -24 22 -7 23 -6 12 8 -7 8 -21 31 -30 51 -10 20 -21 33 -25 30z"/>
 <path d="M435 636 c-18 -13 -14 -14 38 -17 49 -4 57 -2 57 14 0 13 -8 17 -38 17 -21 0 -47 -6 -57 -14z"/>
 <path d="M427 599 c-12 -7 -17 -21 -15 -45 3 -43 -18 -67 -36 -42 -12 17 -14 17 -30 -1 -10 -11 -31 -25 -47 -31 -16 -7 -29 -16 -29 -19 0 -4 -8 -16 -18 -27 -10 -10 -18 -21 -19 -24 0 -3 -6 -23 -12 -45 -16 -59 -15 -63 28 -63 38 -1 39 0 37 33 -3 30 4 41 65 98 87 83 144 112 207 104 26 -3 55 -9 65 -12 26 -10 22 20 -5 40 -42 29 -163 51 -191 34z"/>
 <path d="M372 540 c7 -11 16 -20 20 -20 5 0 8 9 8 20 0 13 -7 20 -20 20 -18 0 -19 -2 -8 -20z"/>
 <path d="M485 511 c-22 -10 -68 -41 -101 -68 -131 -109 -101 -168 68 -132 76 17 131 43 177 84 43 39 52 73 27 95 -12 9 -108 40 -126 40 -3 0 -23 -9 -45 -19z m114 -37 c23 -29 27 -49 10 -59 -17 -11 -49 26 -49 57 0 35 12 36 39 2z m-159 -79 c-13 -14 -30 -25 -39 -25 -9 0 0 11 19 25 45 31 49 31 20 0z"/>
 <path d="M633 381 c-78 -73 -219 -109 -376 -97 -71 5 -78 4 -75 -12 4 -23 98 -59 192 -74 127 -20 237 11 319 90 20 20 37 44 37 54 0 25 -27 88 -37 88 -4 -1 -32 -23 -60 -49z"/>
 <path d="M783 423 c20 -2 54 -2 75 0 20 2 3 4 -38 4 -41 0 -58 -2 -37 -4z"/>
 <path d="M743 320 c0 -30 2 -43 4 -27 2 15 2 39 0 55 -2 15 -4 2 -4 -28z"/>
 <path d="M20 278 c0 -32 12 -48 38 -48 29 0 112 37 112 50 0 5 -34 10 -75 12 -65 3 -75 1 -75 -14z"/>
 <path d="M683 255 c-95 -75 -249 -97 -398 -56 -38 11 -71 18 -73 16 -2 -1 3 -18 11 -37 16 -38 73 -96 114 -115 l28 -12 -37 1 c-54 3 -57 -9 -4 -17 58 -9 166 1 230 22 85 27 155 107 171 196 4 20 6 37 4 36 -2 0 -23 -16 -46 -34z"/>
 <path d="M148 205 c-15 -13 -37 -30 -49 -39 -19 -13 -20 -17 -9 -31 29 -35 95 15 88 68 l-3 26 -27 -24z"/>
 <path d="M43 213 c9 -2 25 -2 35 0 9 3 1 5 -18 5 -19 0 -27 -2 -17 -5z"/>
 <path d="M348 13 c23 -2 59 -2 80 0 20 2 1 4 -43 4 -44 0 -61 -2 -37 -4z"/>
 </g>
<g id="layer103" fill="#484745" stroke="none">
 <path d="M280 934 c-98 -12 -230 -35 -254 -44 -23 -8 -27 -15 -24 -42 2 -25 9 -35 29 -42 23 -8 31 -3 75 42 59 61 109 78 199 67 33 -4 97 -9 143 -10 46 -2 89 -8 97 -15 9 -7 59 -10 152 -8 l138 3 72 -37 c39 -21 74 -45 76 -55 4 -14 5 -15 6 -2 0 9 12 21 26 27 15 7 25 20 25 32 0 51 -170 81 -490 85 -129 2 -251 1 -270 -1z"/>
 <path d="M230 890 c11 -7 9 -11 -13 -19 -25 -10 -81 -60 -74 -67 1 -2 32 -4 67 -5 40 -2 87 -11 122 -26 67 -27 120 -30 142 -7 31 30 14 84 -26 84 -10 0 -18 5 -18 11 0 5 -4 7 -10 4 -5 -3 -10 -1 -10 5 0 6 -5 8 -10 5 -6 -4 -17 -1 -25 5 -8 7 -15 9 -15 6 0 -4 -8 -2 -18 3 -11 6 -33 6 -55 1 -21 -4 -39 -4 -43 1 -3 5 -11 9 -17 9 -7 0 -6 -4 3 -10z"/>
 <path d="M578 863 c-9 -2 -18 -16 -20 -31 -2 -18 -10 -28 -28 -32 -14 -3 -25 -12 -25 -20 0 -20 -37 -38 -88 -43 -42 -4 -42 -4 8 -5 32 -1 59 4 73 14 26 18 57 11 48 -11 -3 -10 3 -17 19 -21 32 -8 32 -27 -1 -53 -34 -27 -28 -40 32 -71 40 -20 51 -32 62 -65 7 -22 23 -50 35 -63 21 -22 27 -23 152 -20 71 2 139 7 149 12 15 7 17 6 11 -4 -5 -8 -4 -11 3 -6 6 4 10 12 8 19 -2 7 -10 71 -17 143 -15 165 -26 189 -104 231 -58 32 -63 32 -180 32 -66 -1 -128 -3 -137 -6z"/>
 <path d="M87 773 c-4 -3 -7 -15 -7 -26 0 -19 5 -20 83 -14 100 8 167 25 146 38 -16 10 -212 12 -222 2z"/>
 <path d="M319 745 c-3 -2 -45 -11 -94 -20 -49 -8 -90 -17 -93 -19 -3 -4 10 -73 24 -128 1 -5 2 -12 3 -17 0 -5 14 -23 30 -40 33 -35 81 -42 119 -15 29 20 28 30 -5 37 -29 6 -64 52 -56 75 3 7 1 12 -4 11 -4 -1 -17 -1 -28 0 -37 2 29 46 90 60 48 11 55 15 55 37 0 17 -6 24 -18 24 -10 0 -21 -2 -23 -5z"/>
 <path d="M492 728 c-34 -17 -27 -62 10 -66 15 -2 35 1 45 7 16 9 16 10 -5 11 -27 0 -39 24 -22 45 14 17 5 18 -28 3z"/>
 <path d="M388 709 c-15 -10 -3 -36 24 -53 20 -12 48 8 48 34 0 20 -50 32 -72 19z"/>
 <path d="M299 664 c-9 -11 -8 -23 6 -54 15 -32 23 -40 45 -40 15 0 35 9 45 20 17 19 17 20 0 20 -15 0 -16 3 -7 12 19 19 14 30 -10 23 -16 -4 -19 -4 -9 3 7 5 11 14 8 19 -10 15 -64 13 -78 -3z"/>
 <path d="M267 643 c-14 -14 -6 -45 18 -68 28 -29 57 -35 32 -7 -9 10 -22 32 -30 50 -7 18 -16 29 -20 25z"/>
 <path d="M435 636 c-18 -13 -14 -14 38 -17 49 -4 57 -2 57 14 0 13 -8 17 -38 17 -21 0 -47 -6 -57 -14z"/>
 <path d="M427 599 c-12 -7 -17 -21 -15 -45 3 -43 -18 -67 -36 -42 -12 17 -14 17 -30 -1 -10 -11 -31 -25 -47 -31 -16 -7 -29 -16 -29 -19 0 -4 -8 -16 -18 -27 -10 -10 -18 -21 -19 -24 0 -3 -6 -23 -12 -45 -16 -59 -15 -63 28 -63 38 -1 39 0 37 33 -3 30 4 41 65 98 87 83 144 112 207 104 26 -3 55 -9 65 -12 26 -10 22 20 -5 40 -42 29 -163 51 -191 34z"/>
 <path d="M372 540 c7 -11 16 -20 20 -20 5 0 8 9 8 20 0 13 -7 20 -20 20 -18 0 -19 -2 -8 -20z"/>
 <path d="M485 511 c-22 -10 -68 -41 -101 -68 -131 -109 -101 -168 68 -132 76 17 131 43 177 84 43 39 52 73 27 95 -12 9 -108 40 -126 40 -3 0 -23 -9 -45 -19z m114 -37 c23 -29 27 -49 10 -59 -17 -11 -49 26 -49 57 0 35 12 36 39 2z m-159 -79 c-13 -14 -30 -25 -39 -25 -9 0 0 11 19 25 45 31 49 31 20 0z"/>
 <path d="M649 391 c-73 -77 -208 -116 -372 -108 -53 2 -97 1 -97 -2 1 -30 85 -66 191 -81 84 -12 181 1 243 31 52 27 116 88 116 111 0 25 -27 88 -37 87 -4 0 -24 -18 -44 -38z"/>
 <path d="M783 423 c20 -2 54 -2 75 0 20 2 3 4 -38 4 -41 0 -58 -2 -37 -4z"/>
 <path d="M743 320 c0 -30 2 -43 4 -27 2 15 2 39 0 55 -2 15 -4 2 -4 -28z"/>
 <path d="M25 272 c3 -15 10 -31 15 -36 13 -13 82 9 112 35 l23 20 -37 -6 c-20 -3 -55 -1 -78 4 l-42 9 7 -26z"/>
 <path d="M683 255 c-95 -75 -249 -97 -398 -56 -38 11 -71 18 -73 16 -2 -1 3 -18 11 -37 16 -38 73 -96 114 -115 l28 -12 -37 1 c-54 3 -57 -9 -4 -17 58 -9 166 1 230 22 85 27 155 107 171 196 4 20 6 37 4 36 -2 0 -23 -16 -46 -34z"/>
 <path d="M144 200 c-18 -15 -40 -32 -50 -38 -16 -9 -16 -12 -4 -27 7 -9 22 -15 33 -13 28 4 59 50 55 81 l-3 26 -31 -29z"/>
 <path d="M43 213 c9 -2 25 -2 35 0 9 3 1 5 -18 5 -19 0 -27 -2 -17 -5z"/>
 <path d="M348 13 c23 -2 59 -2 80 0 20 2 1 4 -43 4 -44 0 -61 -2 -37 -4z"/>
 </g>
<g id="layer104" fill="#0cc821" stroke="none">
 <path d="M280 934 c-97 -12 -230 -35 -254 -43 -49 -19 -28 -91 28 -91 8 0 24 16 36 35 13 22 41 44 76 61 50 25 61 26 127 20 40 -4 108 -9 152 -10 45 -1 87 -6 95 -12 8 -5 80 -9 160 -9 l145 0 67 -38 c37 -21 69 -46 71 -55 4 -14 5 -15 6 -1 0 9 12 21 26 27 15 7 25 20 25 32 0 51 -170 81 -490 85 -129 2 -251 1 -270 -1z"/>
 <path d="M674 861 c-6 -7 -33 -14 -61 -18 -39 -4 -53 -10 -56 -24 -3 -11 -14 -19 -25 -19 -32 0 -36 -29 -6 -40 17 -7 24 -15 20 -25 -4 -10 1 -15 15 -15 32 0 36 -30 6 -56 -36 -31 -34 -41 10 -59 51 -21 70 -41 84 -84 6 -20 21 -46 32 -58 19 -22 29 -23 148 -23 108 0 130 3 149 18 23 18 23 21 12 108 -7 49 -17 120 -24 159 l-13 69 -60 35 c-52 30 -71 35 -140 39 -50 2 -84 -1 -91 -7z m16 -41 c12 -8 11 -10 -7 -10 -13 0 -23 5 -23 10 0 13 11 13 30 0z m215 -137 c11 -14 10 -19 -3 -29 -22 -16 -46 12 -28 32 15 17 17 17 31 -3z"/>
 <path d="M87 773 c-4 -3 -7 -15 -7 -26 0 -19 5 -20 83 -14 100 8 167 25 146 38 -16 10 -212 12 -222 2z"/>
 <path d="M465 745 c-16 -8 -23 -14 -14 -15 8 0 24 7 35 15 23 18 18 18 -21 0z"/>
 <path d="M492 728 c-17 -8 -22 -19 -20 -37 3 -29 25 -37 66 -25 l27 7 -25 7 c-19 5 -25 13 -25 33 1 15 1 27 0 26 0 0 -10 -5 -23 -11z"/>
 <path d="M388 709 c-15 -10 -3 -36 24 -53 20 -12 48 8 48 34 0 20 -50 32 -72 19z"/>
 <path d="M300 665 c-19 -23 17 -89 51 -93 31 -4 61 25 40 38 -9 5 -10 10 -2 14 20 13 12 28 -11 20 -20 -6 -21 -5 -9 10 7 9 12 16 10 17 -46 8 -69 6 -79 -6z"/>
 <path d="M267 643 c-22 -21 21 -93 55 -93 10 0 10 2 1 8 -7 4 -20 27 -31 50 -10 23 -22 39 -25 35z"/>
 <path d="M435 636 c-18 -13 -14 -14 38 -17 49 -4 57 -2 57 14 0 13 -8 17 -38 17 -21 0 -47 -6 -57 -14z"/>
 <path d="M508 589 c61 -10 107 -31 121 -56 6 -10 11 -13 11 -6 1 34 -84 74 -151 72 -27 -1 -23 -3 19 -10z"/>
 <path d="M370 553 c0 -5 4 -15 10 -23 11 -18 25 -7 17 15 -6 15 -27 21 -27 8z"/>
 <path d="M455 494 c-118 -81 -172 -147 -146 -178 39 -47 260 14 334 92 55 58 17 102 -93 110 -47 3 -61 -1 -95 -24z m145 -16 c22 -24 26 -53 10 -63 -22 -14 -63 44 -53 73 7 18 19 15 43 -10z m-152 -77 c-7 -11 -25 -25 -40 -30 -38 -13 -36 1 3 18 17 7 33 20 36 28 3 7 7 12 10 9 2 -2 -1 -13 -9 -25z"/>
 <path d="M649 391 c-73 -77 -208 -116 -372 -108 -53 2 -97 1 -97 -2 1 -30 85 -66 191 -81 84 -12 181 1 243 31 52 27 116 88 116 111 0 25 -27 88 -37 87 -4 0 -24 -18 -44 -38z"/>
 <path d="M823 423 c15 -2 37 -2 50 0 12 2 0 4 -28 4 -27 0 -38 -2 -22 -4z"/>
 <path d="M743 320 c0 -30 2 -43 4 -27 2 15 2 39 0 55 -2 15 -4 2 -4 -28z"/>
 <path d="M25 272 c3 -15 10 -31 15 -36 13 -13 82 9 112 35 l23 20 -37 -6 c-20 -3 -55 -1 -78 4 l-42 9 7 -26z"/>
 <path d="M707 267 c-4 -10 -7 -28 -7 -40 0 -12 -12 -42 -26 -67 -21 -38 -22 -42 -5 -26 26 23 54 96 49 127 -3 21 -4 22 -11 6z"/>
 <path d="M144 200 c-18 -15 -40 -32 -50 -38 -16 -9 -16 -12 -4 -27 7 -9 22 -15 33 -13 28 4 59 50 55 81 l-3 26 -31 -29z"/>
 <path d="M43 213 c9 -2 25 -2 35 0 9 3 1 5 -18 5 -19 0 -27 -2 -17 -5z"/>
 </g>
<g id="layer105" fill="#916850" stroke="none">
 <path d="M280 934 c-97 -12 -230 -35 -254 -43 -49 -19 -28 -91 28 -91 8 0 24 16 36 35 13 22 41 44 76 61 50 25 61 26 127 20 40 -4 108 -9 152 -10 45 -1 87 -6 95 -12 8 -5 80 -9 160 -9 l145 0 67 -38 c37 -21 69 -46 71 -55 4 -14 5 -15 6 -1 0 9 12 21 26 27 15 7 25 20 25 32 0 51 -170 81 -490 85 -129 2 -251 1 -270 -1z"/>
 <path d="M674 861 c-6 -7 -33 -14 -61 -18 -39 -4 -53 -10 -56 -24 -3 -11 -14 -19 -25 -19 -32 0 -36 -29 -6 -40 16 -6 24 -16 21 -24 -4 -9 5 -16 26 -20 17 -4 58 -27 90 -52 l58 -46 23 21 22 21 62 -45 c34 -25 68 -45 75 -45 7 0 21 -16 31 -36 l17 -37 -23 7 c-13 3 -33 6 -45 6 -14 0 -21 5 -17 13 5 13 -74 77 -95 77 -5 0 -17 -10 -25 -22 -15 -21 -16 -21 -88 39 -73 60 -74 61 -96 43 -31 -25 -28 -37 15 -55 51 -21 70 -41 84 -84 6 -20 21 -46 32 -58 19 -22 29 -23 148 -23 108 0 130 3 149 18 23 18 23 21 12 108 -7 49 -17 120 -24 159 l-13 69 -60 35 c-52 30 -71 35 -140 39 -50 2 -84 -1 -91 -7z m16 -41 c12 -8 11 -10 -7 -10 -13 0 -23 5 -23 10 0 13 11 13 30 0z m215 -137 c11 -14 10 -19 -3 -29 -22 -16 -46 12 -28 32 15 17 17 17 31 -3z"/>
 <path d="M87 773 c-4 -3 -7 -15 -7 -26 0 -19 5 -20 83 -14 100 8 167 25 146 38 -16 10 -212 12 -222 2z"/>
 <path d="M465 745 c-16 -8 -23 -14 -14 -15 8 0 24 7 35 15 23 18 18 18 -21 0z"/>
 <path d="M492 728 c-17 -8 -22 -19 -20 -37 3 -29 25 -37 66 -25 l27 7 -25 7 c-19 5 -25 13 -25 33 1 15 1 27 0 26 0 0 -10 -5 -23 -11z"/>
 <path d="M388 709 c-15 -10 -3 -36 24 -53 20 -12 48 8 48 34 0 20 -50 32 -72 19z"/>
 <path d="M300 665 c-19 -23 17 -89 51 -93 31 -4 61 25 40 38 -9 5 -10 10 -2 14 20 13 12 28 -11 20 -20 -6 -21 -5 -9 10 7 9 12 16 10 17 -46 8 -69 6 -79 -6z"/>
 <path d="M267 643 c-22 -21 21 -93 55 -93 10 0 10 2 1 8 -7 4 -20 27 -31 50 -10 23 -22 39 -25 35z"/>
 <path d="M435 636 c-18 -13 -14 -14 38 -17 49 -4 57 -2 57 14 0 13 -8 17 -38 17 -21 0 -47 -6 -57 -14z"/>
 <path d="M508 589 c61 -10 107 -31 121 -56 6 -10 11 -13 11 -6 1 34 -84 74 -151 72 -27 -1 -23 -3 19 -10z"/>
 <path d="M370 553 c0 -5 4 -15 10 -23 11 -18 25 -7 17 15 -6 15 -27 21 -27 8z"/>
 <path d="M455 494 c-118 -81 -172 -147 -146 -178 39 -47 260 14 334 92 55 58 17 102 -93 110 -47 3 -61 -1 -95 -24z m145 -16 c22 -24 26 -53 10 -63 -22 -14 -63 44 -53 73 7 18 19 15 43 -10z m-152 -77 c-7 -11 -25 -25 -40 -30 -38 -13 -36 1 3 18 17 7 33 20 36 28 3 7 7 12 10 9 2 -2 -1 -13 -9 -25z"/>
 <path d="M649 391 c-73 -77 -208 -116 -372 -108 -53 2 -97 1 -97 -2 1 -30 85 -66 191 -81 84 -12 181 1 243 31 52 27 116 88 116 111 0 25 -27 88 -37 87 -4 0 -24 -18 -44 -38z"/>
 <path d="M823 423 c15 -2 37 -2 50 0 12 2 0 4 -28 4 -27 0 -38 -2 -22 -4z"/>
 <path d="M743 320 c0 -30 2 -43 4 -27 2 15 2 39 0 55 -2 15 -4 2 -4 -28z"/>
 <path d="M25 272 c3 -15 10 -31 15 -36 13 -13 82 9 112 35 l23 20 -37 -6 c-20 -3 -55 -1 -78 4 l-42 9 7 -26z"/>
 <path d="M707 267 c-4 -10 -7 -28 -7 -40 0 -12 -12 -42 -26 -67 -21 -38 -22 -42 -5 -26 26 23 54 96 49 127 -3 21 -4 22 -11 6z"/>
 <path d="M144 200 c-18 -15 -40 -32 -50 -38 -16 -9 -16 -12 -4 -27 7 -9 22 -15 33 -13 28 4 59 50 55 81 l-3 26 -31 -29z"/>
 <path d="M43 213 c9 -2 25 -2 35 0 9 3 1 5 -18 5 -19 0 -27 -2 -17 -5z"/>
 </g>
<g id="layer106" fill="#f67401" stroke="none">
 <path d="M280 934 c-97 -12 -230 -35 -254 -43 -49 -19 -28 -91 28 -91 8 0 24 16 36 35 13 22 41 44 76 61 50 25 61 26 127 20 40 -4 108 -9 152 -10 45 -1 87 -6 95 -12 8 -5 80 -9 160 -9 l145 0 67 -38 c37 -21 69 -46 71 -55 4 -14 5 -15 6 -1 0 9 12 21 26 27 15 7 25 20 25 32 0 51 -170 81 -490 85 -129 2 -251 1 -270 -1z"/>
 <path d="M674 861 c-6 -7 -33 -14 -61 -18 -39 -4 -53 -10 -56 -24 -3 -11 -14 -19 -25 -19 -32 0 -36 -29 -6 -40 16 -6 24 -16 21 -24 -4 -9 5 -16 26 -20 17 -4 58 -27 90 -52 l58 -46 23 21 22 21 62 -45 c34 -25 68 -45 75 -45 7 0 21 -16 31 -36 l17 -37 -23 7 c-13 3 -33 6 -45 6 -14 0 -21 5 -17 13 5 13 -74 77 -95 77 -5 0 -17 -10 -25 -22 -15 -21 -16 -21 -88 39 -73 60 -74 61 -96 43 -31 -25 -28 -37 15 -55 51 -21 70 -41 84 -84 6 -20 21 -46 32 -58 19 -22 29 -23 148 -23 108 0 130 3 149 18 23 18 23 21 12 108 -7 49 -17 120 -24 159 l-13 69 -60 35 c-52 30 -71 35 -140 39 -50 2 -84 -1 -91 -7z m16 -41 c12 -8 11 -10 -7 -10 -13 0 -23 5 -23 10 0 13 11 13 30 0z m215 -137 c11 -14 10 -19 -3 -29 -22 -16 -46 12 -28 32 15 17 17 17 31 -3z"/>
 <path d="M87 773 c-4 -3 -7 -15 -7 -26 0 -19 5 -20 83 -14 100 8 167 25 146 38 -16 10 -212 12 -222 2z"/>
 <path d="M465 745 c-16 -8 -23 -14 -14 -15 8 0 24 7 35 15 23 18 18 18 -21 0z"/>
 <path d="M492 728 c-17 -8 -22 -19 -20 -37 3 -29 25 -37 66 -25 l27 7 -25 7 c-19 5 -25 13 -25 33 1 15 1 27 0 26 0 0 -10 -5 -23 -11z"/>
 <path d="M388 709 c-15 -10 -3 -36 24 -53 20 -12 48 8 48 34 0 20 -50 32 -72 19z"/>
 <path d="M304 666 c-16 -12 -16 -15 2 -52 14 -28 26 -40 45 -42 31 -4 61 25 40 38 -9 5 -10 10 -2 14 20 13 12 28 -11 20 -20 -6 -21 -5 -9 10 7 9 12 16 10 17 -38 7 -60 5 -75 -5z"/>
 <path d="M267 643 c-22 -21 21 -93 55 -93 10 0 10 2 1 8 -7 4 -20 27 -31 50 -10 23 -22 39 -25 35z"/>
 <path d="M435 636 c-18 -13 -14 -14 38 -17 49 -4 57 -2 57 14 0 13 -8 17 -38 17 -21 0 -47 -6 -57 -14z"/>
 <path d="M508 589 c61 -10 107 -31 121 -56 6 -10 11 -13 11 -6 1 34 -84 74 -151 72 -27 -1 -23 -3 19 -10z"/>
 <path d="M370 553 c0 -5 4 -15 10 -23 11 -18 25 -7 17 15 -6 15 -27 21 -27 8z"/>
 <path d="M455 494 c-118 -81 -172 -147 -146 -178 38 -46 258 14 331 89 58 60 23 102 -90 112 -48 4 -60 1 -95 -23z m145 -14 c23 -23 27 -70 7 -70 -17 0 -44 29 -47 50 -6 45 8 52 40 20z m-146 -74 c-6 -14 -52 -46 -69 -46 -16 0 -1 17 26 29 17 7 33 20 36 28 3 7 7 12 9 10 3 -2 2 -12 -2 -21z"/>
 <path d="M649 391 c-73 -77 -208 -116 -372 -108 -53 2 -97 1 -97 -2 1 -30 85 -66 191 -81 130 -19 255 17 328 93 29 31 32 39 26 69 -9 39 -23 68 -33 67 -4 0 -23 -18 -43 -38z"/>
 <path d="M823 423 c15 -2 37 -2 50 0 12 2 0 4 -28 4 -27 0 -38 -2 -22 -4z"/>
 <path d="M743 320 c0 -30 2 -43 4 -27 2 15 2 39 0 55 -2 15 -4 2 -4 -28z"/>
 <path d="M25 272 c3 -15 10 -31 15 -36 13 -13 82 9 112 35 l23 20 -37 -6 c-20 -3 -55 -1 -78 4 l-42 9 7 -26z"/>
 <path d="M707 267 c-4 -10 -7 -28 -7 -40 0 -12 -12 -42 -26 -67 -21 -38 -22 -42 -5 -26 26 23 54 96 49 127 -3 21 -4 22 -11 6z"/>
 <path d="M144 200 c-18 -15 -40 -32 -50 -38 -16 -9 -16 -12 -4 -27 7 -9 22 -15 33 -13 28 4 59 50 55 81 l-3 26 -31 -29z"/>
 <path d="M43 213 c9 -2 25 -2 35 0 9 3 1 5 -18 5 -19 0 -27 -2 -17 -5z"/>
 </g>
<g id="layer107" fill="#7e7f81" stroke="none">
 <path d="M280 934 c-97 -12 -230 -35 -254 -43 -49 -19 -28 -91 28 -91 8 0 24 16 36 35 13 22 41 44 76 61 50 25 61 26 127 20 40 -4 108 -9 152 -10 45 -1 87 -6 95 -12 8 -5 80 -9 160 -9 l145 0 67 -38 c37 -21 69 -46 71 -55 4 -14 5 -15 6 -1 0 9 12 21 26 27 15 7 25 20 25 32 0 51 -170 81 -490 85 -129 2 -251 1 -270 -1z"/>
 <path d="M674 861 c-6 -7 -33 -14 -61 -18 -39 -4 -53 -10 -56 -24 -3 -11 -14 -19 -25 -19 -32 0 -36 -29 -6 -40 16 -6 24 -16 21 -24 -4 -9 5 -16 26 -20 17 -4 58 -27 90 -52 l58 -46 23 21 22 21 62 -45 c34 -25 68 -45 75 -45 7 0 21 -16 31 -36 l17 -37 -23 7 c-13 3 -33 6 -45 6 -14 0 -21 5 -17 13 5 13 -74 77 -95 77 -5 0 -17 -10 -25 -22 -15 -21 -16 -21 -88 39 -73 60 -74 61 -96 43 -31 -25 -28 -37 15 -55 51 -21 70 -41 84 -84 6 -20 21 -46 32 -58 19 -22 29 -23 148 -23 108 0 130 3 149 18 23 18 23 21 12 108 -7 49 -17 120 -24 159 l-13 69 -60 35 c-52 30 -71 35 -140 39 -50 2 -84 -1 -91 -7z m16 -41 c12 -8 11 -10 -7 -10 -13 0 -23 5 -23 10 0 13 11 13 30 0z m215 -137 c11 -14 10 -19 -3 -29 -22 -16 -46 12 -28 32 15 17 17 17 31 -3z"/>
 <path d="M135 771 c-3 -5 9 -12 27 -14 l33 -4 -32 -1 c-18 -1 -33 -7 -33 -13 0 -13 87 -6 155 13 34 9 37 12 20 19 -28 11 -163 11 -170 0z"/>
 <path d="M465 745 c-16 -8 -23 -14 -14 -15 8 0 24 7 35 15 23 18 18 18 -21 0z"/>
 <path d="M492 728 c-17 -8 -22 -19 -20 -37 3 -29 25 -37 66 -25 l27 7 -25 7 c-19 5 -25 13 -25 33 1 15 1 27 0 26 0 0 -10 -5 -23 -11z"/>
 <path d="M446 685 c-3 -8 -15 -15 -28 -15 -16 0 -19 -3 -11 -11 14 -14 53 5 53 26 0 19 -6 19 -14 0z"/>
 <path d="M304 666 c-16 -12 -16 -15 2 -52 14 -28 26 -40 45 -42 31 -4 61 25 40 38 -9 5 -10 10 -2 14 20 13 12 28 -11 20 -20 -6 -21 -5 -9 10 7 9 12 16 10 17 -38 7 -60 5 -75 -5z"/>
 <path d="M435 636 c-18 -13 -14 -14 38 -17 49 -4 57 -2 57 14 0 13 -8 17 -38 17 -21 0 -47 -6 -57 -14z"/>
 <path d="M287 593 c-12 -11 -8 -22 14 -33 19 -11 20 -10 8 12 -15 30 -15 29 -22 21z"/>
 <path d="M508 589 c61 -10 107 -31 121 -56 6 -10 11 -13 11 -6 1 34 -84 74 -151 72 -27 -1 -23 -3 19 -10z"/>
 <path d="M370 553 c0 -5 4 -15 10 -23 11 -18 25 -7 17 15 -6 15 -27 21 -27 8z"/>
 <path d="M455 494 c-118 -81 -172 -147 -146 -178 38 -46 258 14 331 89 58 60 23 102 -90 112 -48 4 -60 1 -95 -23z m145 -14 c23 -23 27 -70 7 -70 -17 0 -44 29 -47 50 -6 45 8 52 40 20z m-146 -74 c-6 -14 -52 -46 -69 -46 -16 0 -1 17 26 29 17 7 33 20 36 28 3 7 7 12 9 10 3 -2 2 -12 -2 -21z"/>
 <path d="M647 388 c-73 -75 -211 -115 -374 -106 -73 4 -83 2 -83 -12 0 -12 20 -25 63 -41 53 -21 79 -24 187 -24 116 0 129 2 175 27 28 14 65 42 84 61 29 31 32 39 26 69 -9 39 -23 68 -33 67 -4 0 -24 -19 -45 -41z"/>
 <path d="M823 423 c15 -2 37 -2 50 0 12 2 0 4 -28 4 -27 0 -38 -2 -22 -4z"/>
 <path d="M743 320 c0 -30 2 -43 4 -27 2 15 2 39 0 55 -2 15 -4 2 -4 -28z"/>
 <path d="M26 272 c12 -50 24 -53 89 -23 36 18 38 19 14 20 -15 1 -45 8 -68 16 l-41 14 6 -27z"/>
 <path d="M707 267 c-4 -10 -7 -28 -7 -40 0 -12 -12 -42 -26 -67 -21 -38 -22 -42 -5 -26 26 23 54 96 49 127 -3 21 -4 22 -11 6z"/>
 <path d="M43 213 c9 -2 25 -2 35 0 9 3 1 5 -18 5 -19 0 -27 -2 -17 -5z"/>
 <path d="M123 187 c-23 -18 -42 -35 -42 -38 -1 -3 11 -12 25 -20 24 -13 28 -12 50 14 22 26 34 78 17 76 -5 0 -27 -15 -50 -32z"/>
 </g>
<g id="layer108" fill="#feaa14" stroke="none">
 <path d="M280 934 c-98 -12 -230 -35 -254 -44 -23 -8 -27 -15 -24 -42 2 -26 9 -35 32 -43 25 -9 31 -7 45 15 50 78 116 107 221 95 61 -6 103 -8 133 -5 25 3 96 -9 115 -19 11 -6 66 -8 145 -4 l127 6 76 -37 c45 -23 79 -46 84 -59 6 -15 9 -17 9 -6 1 9 12 21 26 27 15 7 25 20 25 32 0 51 -170 81 -490 85 -129 2 -251 1 -270 -1z"/>
 <path d="M650 843 c-77 -3 -87 -6 -95 -26 -6 -13 -17 -21 -28 -19 -24 4 -22 -25 3 -38 11 -6 20 -17 20 -24 0 -8 12 -17 28 -21 15 -3 53 -27 85 -52 l58 -45 23 21 22 21 62 -45 c34 -25 68 -45 75 -45 7 0 21 -16 31 -36 l17 -37 -23 7 c-13 3 -33 6 -45 6 -14 0 -21 5 -17 13 5 13 -74 77 -95 77 -5 0 -17 -10 -25 -22 -15 -21 -16 -21 -91 41 -59 49 -76 59 -81 47 -3 -9 -12 -16 -20 -16 -33 0 -11 -29 41 -55 30 -15 46 -33 65 -71 42 -86 38 -84 171 -84 65 0 130 5 145 10 l27 10 -7 83 c-4 45 -12 111 -18 147 -5 36 -11 74 -12 85 0 12 -18 29 -45 44 -47 26 -103 31 -271 24z m40 -23 c11 -7 4 -10 -27 -10 -24 0 -43 5 -43 10 0 13 50 13 70 0z m168 -17 c-10 -2 -26 -2 -35 0 -10 3 -2 5 17 5 19 0 27 -2 18 -5z m-170 -10 c-21 -2 -57 -2 -80 0 -24 2 -7 4 37 4 44 0 63 -2 43 -4z m90 0 c-10 -2 -26 -2 -35 0 -10 3 -2 5 17 5 19 0 27 -2 18 -5z m122 -103 c0 -5 -4 -10 -10 -10 -5 0 -10 -5 -10 -11 0 -8 5 -7 15 1 23 19 29 4 8 -17 -19 -19 -19 -19 -35 2 -15 20 -15 22 0 33 21 14 32 15 32 2z m38 -217 c-10 -2 -28 -2 -40 0 -13 2 -5 4 17 4 22 1 32 -1 23 -4z"/>
 <path d="M135 771 c-3 -5 9 -12 27 -14 l33 -4 -32 -1 c-18 -1 -33 -7 -33 -13 0 -13 87 -6 155 13 34 9 37 12 20 19 -28 11 -163 11 -170 0z"/>
 <path d="M482 718 c-15 -15 -16 -45 -1 -53 6 -4 27 -4 47 0 34 7 35 8 12 14 -16 4 -26 15 -28 29 -4 25 -12 28 -30 10z"/>
 <path d="M446 685 c-3 -8 -15 -15 -28 -15 -16 0 -19 -3 -11 -11 14 -14 53 5 53 26 0 19 -6 19 -14 0z"/>
 <path d="M304 666 c-16 -12 -16 -15 2 -52 14 -28 26 -40 45 -42 31 -4 61 25 40 38 -9 5 -10 10 -2 14 20 13 12 28 -11 20 -20 -6 -21 -5 -9 10 7 9 12 16 10 17 -38 7 -60 5 -75 -5z"/>
 <path d="M435 636 c-19 -14 -16 -15 38 -16 43 0 58 3 55 13 -7 18 -70 20 -93 3z"/>
 <path d="M287 593 c-12 -11 -8 -22 14 -33 19 -11 20 -10 8 12 -15 30 -15 29 -22 21z"/>
 <path d="M370 553 c0 -5 4 -15 10 -23 11 -18 25 -7 17 15 -6 15 -27 21 -27 8z"/>
 <path d="M445 487 c-143 -99 -184 -187 -86 -187 95 1 231 52 285 108 53 57 16 99 -94 109 -50 4 -59 1 -105 -30z m159 -9 c22 -31 21 -70 0 -66 -25 5 -56 51 -48 71 9 24 30 21 48 -5z m-150 -72 c-8 -20 -63 -51 -72 -40 -4 4 -1 9 6 11 7 3 25 16 40 28 30 26 36 26 26 1z"/>
 <path d="M647 388 c-73 -75 -211 -115 -374 -106 -73 4 -83 2 -83 -12 0 -12 20 -25 63 -41 53 -21 79 -24 187 -24 116 0 129 2 175 27 28 14 65 42 84 61 29 31 32 39 26 69 -9 39 -23 68 -33 67 -4 0 -24 -19 -45 -41z"/>
 <path d="M843 423 c9 -2 25 -2 35 0 9 3 1 5 -18 5 -19 0 -27 -2 -17 -5z"/>
 <path d="M743 305 c0 -22 2 -30 4 -17 2 12 2 30 0 40 -3 9 -5 -1 -4 -23z"/>
 <path d="M26 272 c12 -50 24 -53 89 -23 36 18 38 19 14 20 -15 1 -45 8 -68 16 l-41 14 6 -27z"/>
 <path d="M123 187 c-23 -18 -42 -35 -42 -38 -1 -3 11 -12 25 -20 24 -13 28 -12 50 14 22 26 34 78 17 76 -5 0 -27 -15 -50 -32z"/>
 </g>
<g id="layer109" fill="#bfa972" stroke="none">
 <path d="M280 934 c-98 -12 -230 -35 -254 -44 -23 -8 -27 -15 -24 -42 2 -26 9 -35 32 -43 25 -9 31 -7 45 15 50 78 116 107 221 95 61 -6 103 -8 133 -5 25 3 96 -9 115 -19 11 -6 66 -8 145 -4 l127 6 76 -37 c45 -23 79 -46 84 -59 6 -15 9 -17 9 -6 1 9 12 21 26 27 15 7 25 20 25 32 0 51 -170 81 -490 85 -129 2 -251 1 -270 -1z"/>
 <path d="M650 843 c-77 -3 -87 -6 -95 -26 -6 -13 -17 -21 -28 -19 -24 4 -22 -25 3 -38 11 -6 20 -17 20 -24 0 -8 12 -17 28 -21 15 -3 53 -27 85 -52 l58 -45 23 21 22 21 62 -45 c34 -25 68 -45 75 -45 7 0 21 -16 31 -36 l17 -37 -23 7 c-13 3 -33 6 -45 6 -14 0 -21 5 -17 13 5 13 -74 77 -95 77 -5 0 -17 -10 -25 -22 -15 -21 -16 -21 -91 41 -59 49 -76 59 -81 47 -3 -9 -12 -16 -20 -16 -33 0 -11 -29 41 -55 30 -15 46 -33 65 -71 42 -86 38 -84 171 -84 65 0 130 5 145 10 l27 10 -7 83 c-4 45 -12 111 -18 147 -5 36 -11 74 -12 85 0 12 -18 29 -45 44 -47 26 -103 31 -271 24z m40 -23 c11 -7 4 -10 -27 -10 -24 0 -43 5 -43 10 0 13 50 13 70 0z m168 -17 c-10 -2 -26 -2 -35 0 -10 3 -2 5 17 5 19 0 27 -2 18 -5z m-170 -10 c-21 -2 -57 -2 -80 0 -24 2 -7 4 37 4 44 0 63 -2 43 -4z m90 0 c-10 -2 -26 -2 -35 0 -10 3 -2 5 17 5 19 0 27 -2 18 -5z m151 -105 c-6 -11 -18 -27 -28 -37 -16 -16 -18 -16 -34 5 -16 22 -16 23 13 36 17 7 30 16 30 20 0 4 7 5 15 2 11 -5 12 -10 4 -26z m9 -215 c-10 -2 -28 -2 -40 0 -13 2 -5 4 17 4 22 1 32 -1 23 -4z"/>
 <path d="M482 718 c-15 -15 -16 -45 -1 -53 6 -4 27 -4 47 0 34 7 35 8 12 14 -16 4 -26 15 -28 29 -4 25 -12 28 -30 10z"/>
 <path d="M304 666 c-16 -12 -16 -15 2 -52 14 -28 26 -40 45 -42 31 -4 61 25 40 38 -9 5 -10 10 -2 14 20 13 12 28 -11 20 -20 -6 -21 -5 -9 10 7 9 12 16 10 17 -38 7 -60 5 -75 -5z"/>
 <path d="M435 636 c-19 -14 -16 -15 38 -16 43 0 58 3 55 13 -7 18 -70 20 -93 3z"/>
 <path d="M370 553 c0 -5 4 -15 10 -23 11 -18 25 -7 17 15 -6 15 -27 21 -27 8z"/>
 <path d="M445 487 c-143 -99 -184 -187 -86 -187 95 1 231 52 285 108 53 57 16 99 -94 109 -50 4 -59 1 -105 -30z m159 -9 c22 -31 21 -70 0 -66 -25 5 -56 51 -48 71 9 24 30 21 48 -5z m-150 -72 c-8 -20 -63 -51 -72 -40 -4 4 -1 9 6 11 7 3 25 16 40 28 30 26 36 26 26 1z"/>
 <path d="M690 415 c6 -8 18 -34 26 -57 l14 -43 -6 40 c-7 47 -20 75 -36 75 -7 0 -6 -5 2 -15z"/>
 <path d="M843 423 c9 -2 25 -2 35 0 9 3 1 5 -18 5 -19 0 -27 -2 -17 -5z"/>
 <path d="M743 305 c0 -22 2 -30 4 -17 2 12 2 30 0 40 -3 9 -5 -1 -4 -23z"/>
 </g>
<g id="layer110" fill="#a7a7aa" stroke="none">
 <path d="M280 934 c-98 -12 -230 -35 -254 -44 -23 -8 -27 -15 -24 -42 2 -26 9 -35 32 -43 25 -9 31 -7 45 15 50 78 116 107 221 95 61 -6 103 -8 133 -5 25 3 96 -9 115 -19 11 -6 66 -8 145 -4 l127 6 76 -37 c45 -23 79 -46 84 -59 6 -15 9 -17 9 -6 1 9 12 21 26 27 15 7 25 20 25 32 0 51 -170 81 -490 85 -129 2 -251 1 -270 -1z"/>
 <path d="M650 843 c-77 -3 -87 -6 -95 -26 -6 -13 -17 -21 -28 -19 -24 4 -22 -25 3 -38 11 -6 20 -17 20 -24 0 -8 12 -17 28 -21 15 -3 53 -27 85 -52 l58 -45 23 21 22 21 62 -45 c34 -25 68 -45 75 -45 7 0 21 -16 31 -36 l17 -37 -23 7 c-13 3 -33 6 -45 6 -14 0 -21 5 -17 13 5 13 -74 77 -95 77 -5 0 -17 -10 -25 -22 -15 -21 -16 -21 -91 41 -59 49 -76 59 -81 47 -3 -9 -12 -16 -20 -16 -33 0 -11 -29 41 -55 30 -15 46 -33 65 -71 42 -86 38 -84 171 -84 65 0 130 5 145 10 l27 10 -7 83 c-4 45 -12 111 -18 147 -5 36 -11 74 -12 85 0 12 -18 29 -45 44 -47 26 -103 31 -271 24z m40 -23 c11 -7 4 -10 -27 -10 -24 0 -43 5 -43 10 0 13 50 13 70 0z m168 -17 c-10 -2 -26 -2 -35 0 -10 3 -2 5 17 5 19 0 27 -2 18 -5z m-170 -10 c-21 -2 -57 -2 -80 0 -24 2 -7 4 37 4 44 0 63 -2 43 -4z m90 0 c-10 -2 -26 -2 -35 0 -10 3 -2 5 17 5 19 0 27 -2 18 -5z m151 -105 c-6 -11 -18 -27 -27 -36 -16 -16 -18 -16 -33 3 -16 19 -15 21 15 41 37 26 61 22 45 -8z m9 -215 c-10 -2 -28 -2 -40 0 -13 2 -5 4 17 4 22 1 32 -1 23 -4z"/>
 <path d="M481 716 c-26 -31 12 -61 61 -48 23 6 23 6 -2 12 -16 4 -26 14 -28 28 -4 25 -15 28 -31 8z"/>
 <path d="M305 666 c-16 -11 -16 -15 2 -52 19 -42 52 -56 79 -34 21 19 17 32 -8 25 l-23 -6 23 17 c28 21 29 37 0 28 -20 -6 -21 -5 -9 10 7 9 12 16 10 17 -38 7 -60 5 -74 -5z"/>
 <path d="M435 636 c-19 -14 -16 -15 38 -16 43 0 58 3 55 13 -7 18 -70 20 -93 3z"/>
 <path d="M370 553 c0 -5 4 -15 10 -23 11 -18 25 -7 17 15 -6 15 -27 21 -27 8z"/>
 <path d="M445 487 c-61 -43 -131 -114 -140 -144 -24 -81 249 -28 339 66 53 56 16 98 -94 108 -50 4 -59 1 -105 -30z m159 -9 c19 -27 21 -68 4 -68 -19 0 -34 12 -47 38 -25 47 14 73 43 30z m-157 -81 c-9 -14 -28 -28 -43 -31 -37 -10 -41 0 -7 18 16 8 35 22 43 31 19 23 25 9 7 -18z"/>
 <path d="M691 430 c0 -3 8 -30 19 -60 11 -30 19 -46 19 -35 0 17 -37 109 -38 95z"/>
 <path d="M843 423 c9 -2 25 -2 35 0 9 3 1 5 -18 5 -19 0 -27 -2 -17 -5z"/>
 <path d="M743 305 c0 -22 2 -30 4 -17 2 12 2 30 0 40 -3 9 -5 -1 -4 -23z"/>
 </g>
<g id="layer111" fill="#d3c4ae" stroke="none">
 <path d="M260 931 l-55 -6 85 -8 c47 -5 93 -8 103 -8 77 4 130 0 145 -12 8 -7 67 -10 150 -8 l137 2 73 -35 c46 -23 76 -44 82 -58 5 -15 9 -17 9 -7 1 9 12 21 26 27 15 7 25 20 25 32 0 51 -170 81 -490 85 -129 2 -260 0 -290 -4z"/>
 <path d="M83 905 c-35 -8 -67 -17 -73 -20 -18 -11 -11 -64 9 -75 33 -17 47 -12 72 27 13 20 44 47 68 60 42 22 42 23 15 22 -16 0 -57 -7 -91 -14z"/>
 <path d="M659 843 c-86 -3 -97 -6 -102 -23 -4 -17 0 -20 31 -19 24 1 29 3 14 6 -39 8 -13 23 38 23 57 0 76 -16 28 -24 -18 -2 19 -2 83 0 97 4 123 2 154 -13 51 -25 27 -31 -116 -32 -151 -1 -239 -11 -239 -26 0 -7 12 -10 33 -8 26 3 28 1 12 -6 -13 -6 -15 -10 -6 -10 8 -1 41 -22 74 -47 l58 -46 23 21 22 21 63 -46 c34 -25 68 -43 75 -41 6 3 19 -13 28 -35 l18 -40 -31 6 c-18 3 -38 6 -45 6 -7 0 -11 6 -8 13 5 13 -74 77 -95 77 -5 0 -17 -10 -25 -22 -15 -21 -16 -21 -91 41 -69 56 -77 60 -82 42 -3 -11 -9 -18 -14 -15 -5 3 -9 -5 -9 -16 0 -16 5 -20 15 -16 8 3 15 2 15 -2 0 -4 14 -15 30 -24 18 -10 38 -34 47 -55 8 -21 24 -51 36 -66 l20 -29 133 4 c87 2 137 7 145 15 10 10 9 42 -4 151 -9 76 -19 145 -22 153 -8 21 -125 78 -170 82 -22 2 -83 2 -136 0z m119 -110 c-10 -2 -28 -2 -40 0 -13 2 -5 4 17 4 22 1 32 -1 23 -4z m100 0 c-16 -2 -40 -2 -55 0 -16 2 -3 4 27 4 30 0 43 -2 28 -4z m55 -39 c-3 -8 -10 -11 -16 -7 -6 3 -7 1 -3 -5 4 -6 -1 -20 -10 -31 -17 -19 -17 -19 -34 2 -17 21 -17 22 12 44 31 23 61 21 51 -3z m43 -209 c-4 -12 -24 -15 -98 -13 l-93 2 93 3 c87 4 92 5 93 26 0 12 3 16 6 9 3 -7 2 -19 -1 -27z"/>
 <path d="M474 679 c-6 -11 48 -18 70 -9 17 6 12 8 -22 12 -24 2 -45 1 -48 -3z"/>
 <path d="M305 666 c-16 -12 -16 -15 4 -54 22 -44 54 -55 79 -30 19 19 14 30 -10 23 l-23 -6 23 17 c28 21 29 37 0 28 -20 -6 -21 -5 -9 10 7 9 12 16 10 17 -38 7 -60 5 -74 -5z"/>
 <path d="M440 635 c-24 -14 -23 -14 33 -15 43 0 58 3 55 13 -6 18 -59 19 -88 2z"/>
 <path d="M370 553 c0 -5 4 -15 10 -23 11 -18 25 -7 17 15 -6 15 -27 21 -27 8z"/>
 <path d="M445 487 c-55 -39 -129 -113 -138 -139 -8 -23 18 -48 51 -48 53 1 163 30 212 56 138 75 129 148 -20 161 -50 4 -59 1 -105 -30z m159 -9 c19 -27 21 -68 4 -68 -19 0 -34 12 -47 38 -25 47 14 73 43 30z m-157 -81 c-9 -14 -28 -28 -43 -31 -37 -10 -41 0 -7 18 16 8 35 22 43 31 19 23 25 9 7 -18z"/>
 <path d="M691 430 c-1 -3 8 -27 19 -55 10 -27 19 -43 19 -35 0 14 -36 101 -38 90z"/>
 </g>
<g id="layer112" fill="#eee2de" stroke="none">
 <path d="M320 928 c0 -14 72 -28 91 -17 10 5 30 7 43 3 48 -12 92 -16 241 -23 143 -6 153 -8 218 -40 57 -28 72 -32 92 -23 15 7 23 19 22 32 -1 20 -8 24 -41 20 -11 -1 -16 3 -11 10 5 7 -2 9 -21 4 -18 -5 -25 -3 -20 4 4 7 -5 9 -30 5 -22 -4 -35 -2 -31 3 3 5 -12 8 -35 6 -29 -3 -39 -1 -33 7 5 9 -10 10 -56 5 -34 -4 -59 -3 -56 2 3 5 -78 9 -184 9 -104 0 -189 -3 -189 -7z"/>
 <path d="M146 908 c5 -8 -3 -9 -30 -5 -25 4 -34 2 -30 -5 5 -7 -2 -9 -20 -4 -20 5 -26 4 -20 -5 5 -9 1 -10 -14 -7 -12 4 -20 2 -16 -3 3 -5 0 -9 -5 -9 -6 0 -11 -9 -11 -20 0 -11 4 -20 9 -20 5 0 17 -7 26 -16 14 -15 19 -12 58 29 23 25 50 49 61 54 16 9 17 11 2 16 -11 5 -15 3 -10 -5z"/>
 <path d="M560 820 c0 -14 6 -20 23 -19 12 0 16 3 9 6 -24 10 0 23 43 23 56 0 82 -9 63 -22 -8 -5 21 -6 75 -2 73 5 95 3 127 -11 22 -10 37 -22 34 -26 -3 -5 -42 -9 -88 -9 -129 0 -296 -12 -296 -22 0 -4 15 -8 33 -8 24 0 28 -3 17 -10 -8 -5 -10 -10 -4 -10 6 0 37 -20 69 -45 l58 -46 22 21 21 20 64 -45 c36 -25 70 -43 76 -41 6 2 19 -13 27 -35 17 -43 15 -44 -41 -33 -18 4 -29 11 -26 18 4 11 -77 76 -96 76 -5 0 -16 -10 -24 -22 -17 -24 -11 -27 -102 49 -63 53 -79 55 -70 11 4 -18 11 -35 17 -36 23 -8 69 -55 69 -71 0 -9 12 -34 26 -55 l26 -39 135 5 c77 3 138 9 145 16 8 8 6 49 -6 152 -10 78 -19 147 -22 154 -2 6 -34 26 -69 44 -64 31 -69 32 -200 32 -128 0 -135 -1 -135 -20z m213 -87 c-13 -2 -35 -2 -50 0 -16 2 -5 4 22 4 28 0 40 -2 28 -4z m115 0 c-15 -2 -42 -2 -60 0 -18 2 -6 4 27 4 33 0 48 -2 33 -4z m41 -44 c-5 -10 -7 -19 -3 -19 3 0 -4 -8 -17 -19 -22 -18 -23 -18 -40 3 -16 20 -16 21 13 43 36 26 63 21 47 -8z m38 -126 c-3 -10 -5 -2 -5 17 0 19 2 27 5 18 2 -10 2 -26 0 -35z m13 -63 l0 -30 -107 2 -108 2 103 3 c101 4 102 4 102 28 0 14 2 25 5 25 3 0 5 -13 5 -30z"/>
 <path d="M306 667 c-18 -13 -18 -15 3 -55 22 -43 38 -50 72 -32 27 15 24 33 -3 25 -22 -6 -22 -6 2 14 l25 21 -29 0 c-28 0 -29 1 -10 15 16 12 17 14 2 15 -9 0 -22 2 -30 5 -7 3 -22 -1 -32 -8z"/>
 <path d="M440 635 c-24 -14 -23 -14 33 -15 43 0 58 3 55 13 -6 18 -59 19 -88 2z"/>
 <path d="M370 552 c0 -5 7 -16 16 -23 14 -12 16 -11 13 5 -4 20 -29 35 -29 18z"/>
 <path d="M466 499 c-62 -33 -156 -130 -156 -161 0 -33 23 -42 87 -33 122 17 231 70 262 127 14 24 14 28 -2 46 -20 22 -81 42 -123 42 -16 -1 -46 -10 -68 -21z m138 -21 c9 -12 16 -33 16 -46 0 -34 -41 -26 -58 11 -25 51 11 80 42 35z m-141 -58 c-7 -27 -50 -60 -77 -59 -20 0 -20 1 -2 12 11 7 33 24 50 39 17 15 32 28 33 28 0 0 -1 -9 -4 -20z"/>
 <path d="M691 425 c0 -5 6 -21 14 -35 8 -14 14 -20 14 -15 0 6 -6 21 -14 35 -8 14 -14 21 -14 15z"/>
 </g>

</svg>